<svg viewBox="0 0 849 890" fill="none" id="lens">
          <defs>
            <mask id="lens-mask">
              <circle cx="363.48" cy="515.5" r="300" fill="white" />
            </mask>
          </defs>
          <image
            href="https://external-content.duckduckgo.com/iu/?u=https%3A%2F%2Fi.imgflip.com%2F3aun8x.jpg&f=1&nofb=1&ipt=9fbd84acbf9d0bf63295d037e6848c901865dca43e4acdfdf8e183d953528044"
            x="63"
            y="215"
            width="600"
            height="600"
            mask="url(#lens-mask)"
            preserveAspectRatio="xMidYMid slice"
          />
          <path
            class="hidden"
            d="M83.5391 517C83.5391 357.621 211.668 228.168 370.539 226.027V807.973C211.668 805.832 83.5391 676.379 83.5391 517Z"
            fill="#863056"
            stroke="#1D1151"
            stroke-width="8"
          />
          <!-- Left shutter -->
          <path
            class="hidden"
            d="M661.539 513.5C661.539 674.808 531.625 805.836 370.539 807.973L370.539 219.027C531.625 221.164 661.539 352.192 661.539 513.5Z"
            fill="#863056"
            stroke="#1D1151"
            stroke-width="8"
          />
          <!-- Right shutter -->
          <circle
            cx="802.774"
            cy="-4.18074"
            r="111.819"
            fill="#863056"
            stroke="#1D1151"
            stroke-width="6"
          />
          <!-- Arm joint upper -->
          <path
            d="M848.135 -98.281C862.014 -98.281 875.014 -89.4032 884.692 -74.1404C894.348 -58.9145 900.418 -37.6962 900.418 -14.1033C900.418 9.48964 894.348 30.7079 884.692 45.9338C875.014 61.1965 862.014 70.0745 848.135 70.0745C834.255 70.0744 821.256 61.1966 811.577 45.9338C801.922 30.7079 795.852 9.48964 795.852 -14.1033C795.852 -37.6961 801.922 -58.9145 811.577 -74.1404C821.256 -89.4031 834.255 -98.2809 848.135 -98.281Z"
            fill="#863056"
            fill-opacity="0.4"
            stroke="#1D1151"
            stroke-width="6"
          />
          <!-- arm joint upper inner circle -->
          <path
            d="M758.821 32.6719C789.873 34.0941 814.298 59.7195 814.23 90.8048L813.521 413.52C813.431 454.245 779.657 486.815 738.956 485.427C697.597 484.016 665.908 448.159 669.593 406.941L698.328 85.5066C701.097 54.5408 727.764 31.2496 758.821 32.6719Z"
            fill="#863056"
            stroke="#1D1151"
            stroke-width="6"
          />
          <!-- Arm pole -->
          <path
            d="M778.232 616.733H655.494C716.44 526.027 680.888 436.031 655.494 413H778.232C839.601 413 837.485 453.747 837.485 538.783C837.485 606.812 797.983 619.095 778.232 616.733Z"
            fill="#863056"
            stroke="#1D1151"
            stroke-width="6"
          />
          <!-- Arm joint side -->
          <path
            d="M0 515.5C3.5502e-06 519.822 0.0769464 524.126 0.226563 528.412L0.226563 536.192L0.538086 536.319C0.554309 536.326 0.570654 536.332 0.586914 536.339C11.3851 727.397 169.729 878.999 363.479 878.999C564.224 878.999 726.959 716.255 726.959 515.5C726.959 314.745 564.224 152 363.479 152C354.562 152 345.72 152.323 336.964 152.954L47.252 152.954C26.7517 152.954 14.5943 160.775 7.7666 170.617C0.966392 180.42 -0.503302 192.164 0.226563 200.005L0.226563 502.587C0.0769342 506.873 0 511.178 0 515.5ZM83.9795 515.5C83.9795 361.136 209.116 236 363.479 236C517.843 236 642.979 361.136 642.979 515.5C642.979 669.863 517.843 795 363.479 795C209.116 795 83.9796 669.863 83.9795 515.5Z"
            fill="#863056"
          />
          <!-- lens main body -->
          <path
            d="M0 515.5H-6V515.5H0ZM0.226563 528.412L6.22291 528.203L6.22656 528.307V528.412H0.226563ZM0.226563 536.192L-2.03777 541.749L-5.77344 540.226L-5.77344 536.192H0.226563ZM0.538086 536.319L-1.72048 541.878L-1.72625 541.876L0.538086 536.319ZM0.586914 536.339L2.84113 530.778L6.36292 532.206L6.57735 536L0.586914 536.339ZM363.479 878.999V884.999V884.999V878.999ZM726.959 515.5H732.959V515.5H726.959ZM363.479 152V146V146V152ZM336.964 152.954L337.395 158.939L337.18 158.954H336.964V152.954ZM47.252 152.954L47.2519 146.954H47.252V152.954ZM7.7666 170.617L2.83666 167.197L2.83669 167.197L7.7666 170.617ZM0.226563 200.005L6.20074 199.449L6.22656 199.726V200.005H0.226563ZM0.226563 502.587H6.22656V502.692L6.22291 502.796L0.226563 502.587ZM83.9795 515.5H77.9795V515.5H83.9795ZM642.979 515.5H648.979V515.5H642.979ZM0 515.5H6C6 519.751 6.07568 523.985 6.22291 528.203L0.226563 528.412L-5.76978 528.621C-5.92179 524.268 -6 519.893 -6 515.5H0ZM0.226563 528.412H6.22656V536.192H0.226563H-5.77344V528.412H0.226563ZM0.226563 536.192L2.4909 530.636L2.80242 530.763L0.538086 536.319L-1.72625 541.876L-2.03777 541.749L0.226563 536.192ZM0.538086 536.319L2.79665 530.761C2.78661 530.757 2.77921 530.754 2.77618 530.752C2.77367 530.751 2.77227 530.751 2.77679 530.753C2.77953 530.754 2.78871 530.757 2.79847 530.761C2.8089 530.765 2.82373 530.771 2.84113 530.778L0.586914 536.339L-1.66731 541.899C-1.65803 541.903 -1.65134 541.906 -1.64906 541.907C-1.64744 541.907 -1.64641 541.908 -1.65182 541.906C-1.65545 541.904 -1.66499 541.9 -1.67564 541.896C-1.6868 541.892 -1.70232 541.885 -1.72048 541.878L0.538086 536.319ZM0.586914 536.339L6.57735 536C17.197 723.9 172.93 872.999 363.479 872.999V878.999V884.999C166.528 884.999 5.57317 730.895 -5.40353 536.677L0.586914 536.339ZM363.479 878.999V872.999C560.91 872.999 720.959 712.942 720.959 515.5H726.959H732.959C732.959 719.569 567.538 884.999 363.479 884.999V878.999ZM726.959 515.5H720.959C720.959 318.058 560.91 158 363.479 158V152V146C567.538 146 732.959 311.431 732.959 515.5H726.959ZM363.479 152V158C354.707 158 346.009 158.318 337.395 158.939L336.964 152.954L336.532 146.97C345.431 146.328 354.417 146 363.479 146V152ZM336.964 152.954V158.954L47.252 158.954V152.954V146.954L336.964 146.954V152.954ZM47.252 152.954L47.252 158.954C28.4993 158.954 18.2837 165.983 12.6965 174.037L7.7666 170.617L2.83669 167.197C10.9049 155.567 25.0041 146.954 47.2519 146.954L47.252 152.954ZM7.7666 170.617L12.6965 174.037C6.89032 182.407 5.56749 192.646 6.20074 199.449L0.226563 200.005L-5.74761 200.561C-6.5741 191.682 -4.95753 178.433 2.83666 167.197L7.7666 170.617ZM0.226563 200.005H6.22656L6.22656 502.587H0.226563H-5.77344L-5.77344 200.005H0.226563ZM0.226563 502.587L6.22291 502.796C6.07567 507.014 6 511.249 6 515.5H0H-6C-6 511.106 -5.9218 506.732 -5.76978 502.378L0.226563 502.587ZM83.9795 515.5H77.9795C77.9795 357.823 205.802 230 363.479 230V236V242C212.43 242 89.9795 364.45 89.9795 515.5H83.9795ZM363.479 236V230C521.157 230 648.979 357.823 648.979 515.5H642.979H636.979C636.979 364.45 514.529 242 363.479 242V236ZM642.979 515.5H648.979C648.979 673.177 521.157 801 363.479 801V795V789C514.529 789 636.979 666.55 636.979 515.5H642.979ZM363.479 795V801C205.802 801 77.9796 673.177 77.9795 515.5H83.9795H89.9795C89.9796 666.55 212.43 789 363.479 789V795Z"
            fill="#1D1151"
          />
          <!-- Lens main body outline -->
          <path
            fill-rule="evenodd"
            clip-rule="evenodd"
            d="M67.4199 515.5C67.4201 679.018 199.97 811.575 363.479 811.575C526.988 811.575 659.539 679.018 659.539 515.5C659.539 351.982 526.989 219.424 363.479 219.424C199.97 219.424 67.4199 351.982 67.4199 515.5ZM89.625 515.492C89.625 364.242 212.237 241.63 363.487 241.63C514.737 241.63 637.35 364.242 637.35 515.492C637.35 666.742 514.737 789.354 363.487 789.354C212.237 789.354 89.6251 666.742 89.625 515.492Z"
            fill="#1D1151"
          />
          <!-- inner lens circle -->
          <path
            d="M38.8628 231.97C38.8628 254.672 57.2654 273.075 79.9653 273.075C102.665 273.075 121.067 254.672 121.067 231.97C121.067 209.269 102.665 190.866 79.9653 190.866C57.2654 190.866 38.8629 209.269 38.8628 231.97Z"
            fill="#4FF3B1"
            stroke="#1D1151"
            stroke-width="8"
          />
          <!-- little lens bit -->
</svg>